<?xml version="1.0" encoding="UTF-8"?>
<svg
	xmlns="http://www.w3.org/2000/svg"
	xmlns:xlink="http://www.w3.org/1999/xlink"
	width="0"
	height="0"
>
	<defs>
		<symbol fill="none" viewBox="0 0 18 18" id="Transactions">
			<path
				d="m8.19292 12.9731c.05684.1371.07178.2879.04291.4334s-.10025.2792-.2051.3841l-3 3c-.06966.0698-.15237.1251-.24342.1628-.09105.0378-.18865.0572-.28721.0572s-.19615-.0194-.2872-.0572c-.09105-.0377-.17377-.093-.24342-.1628l-3.000003-3c-.105008-.1048-.176534-.2385-.205522-.3841-.028987-.1456-.014134-.2965.04268-.4336.056815-.1371.153035-.2543.276485-.3367.12344-.0824.26856-.1263.41698-.1262h2.25v-11.24998c0-.19891.07902-.389678.21967-.53033.14066-.140652.33142-.21967.53033-.21967.19892 0 .38968.079018.53033.21967s.21967.33142.21967.53033v11.24998h2.25c.14834 0 .29333.0441.41665.1265s.21943.1996.27617.3366zm8.83778-9.24371-3-2.999995c-.0696-.069732-.1523-.125051-.2434-.162795-.091-.037743-.1886-.05717-.2872-.05717s-.1962.019427-.2872.05717c-.091.037744-.1738.093063-.2434.162795l-3.00002 2.999995c-.10501.1049-.17654.23859-.20552.38415-.02899.14556-.01414.29646.04268.43357.05681.13712.15303.2543.27646.3367.1235.0824.2686.12633.417.12621h2.25v11.24998c0 .1989.079.3897.2197.5303.1406.1407.3314.2197.5303.2197s.3897-.079.5303-.2197c.1407-.1406.2197-.3314.2197-.5303v-11.24998h2.25c.1484.00012.2935-.04381.417-.12621.1234-.0824.2197-.19958.2765-.3367.0568-.13711.0716-.28801.0426-.43357-.0289-.14556-.1005-.27925-.2055-.38415z"
				fill="currentColor"
			></path>
		</symbol>
		<symbol fill="none" viewBox="0 0 16 15" id="Sort">
			<path
				d="m14.25 0h-12.5c-.33152 0-.64946.131696-.883884.366116-.23442.234421-.366116.552363-.366116.883884v12.5c0 .3315.131696.6495.366116.8839.234424.2344.552364.3661.883884.3661h12.5c.3315 0 .6495-.1317.8839-.3661s.3661-.5524.3661-.8839v-12.5c0-.331521-.1317-.649463-.3661-.883884-.2344-.23442-.5524-.366116-.8839-.366116zm-10.625 3.125h7.5c.1658 0 .3247.06585.4419.18306.1173.11721.1831.27618.1831.44194s-.0658.32473-.1831.44194c-.1172.11721-.2761.18306-.4419.18306h-7.5c-.16576 0-.32473-.06585-.44194-.18306s-.18306-.27618-.18306-.44194.06585-.32473.18306-.44194.27618-.18306.44194-.18306zm3.125 8.75h-3.125c-.16576 0-.32473-.0658-.44194-.1831-.11721-.1172-.18306-.2761-.18306-.4419s.06585-.3247.18306-.4419c.11721-.1173.27618-.1831.44194-.1831h3.125c.16576 0 .32473.0658.44194.1831.11721.1172.18306.2761.18306.4419s-.06585.3247-.18306.4419c-.11721.1173-.27618.1831-.44194.1831zm.625-3.75h-3.75c-.16576 0-.32473-.06585-.44194-.18306s-.18306-.27618-.18306-.44194.06585-.32473.18306-.44194.27618-.18306.44194-.18306h3.75c.16576 0 .32473.06585.44194.18306s.18306.27618.18306.44194-.06585.32473-.18306.44194-.27618.18306-.44194.18306zm6.0672 2.3172-1.875 1.875c-.0581.0581-.127.1042-.2029.1357-.0758.0314-.1572.0476-.2393.0476s-.1635-.0162-.2393-.0476c-.0759-.0315-.1448-.0776-.2029-.1357l-1.87499-1.875c-.11727-.1173-.18316-.2763-.18316-.4422 0-.16585.06589-.32491.18316-.44219.11728-.11727.27634-.18316.44219-.18316s.32491.06589.44219.18316l.80781.80859v-3.4914c0-.16576.0658-.32473.1831-.44194.1172-.11721.2761-.18306.4419-.18306s.3247.06585.4419.18306c.1173.11721.1831.27618.1831.44194v3.4914l.8078-.80859c.1173-.11727.2763-.18316.4422-.18316s.3249.06589.4422.18316c.1173.11728.1831.27634.1831.44219 0 .1659-.0658.3249-.1831.4422z"
				fill="#201f24"
			></path>
		</symbol>
		<symbol fill="none" viewBox="0 0 20 17" id="RecurringBills">
			<path
				d="m18.25.51001h-16.5c-.39782 0-.779356.158035-1.06066.43934-.281305.2813-.43934.66284-.43934 1.06066v14.24999c.000068.1278.032807.2535.095109.3651.062302.1117.152099.2055.260865.2727.108766.0671.232893.1054.360595.1111.127701.0057.254741-.0214.369061-.0786l2.66437-1.3322 2.66437 1.3322c.1042.0522.21911.0793.33563.0793s.23143-.0271.33563-.0793l2.66437-1.3322 2.6644 1.3322c.1042.0522.2191.0793.3356.0793s.2314-.0271.3356-.0793l2.6644-1.3322 2.6644 1.3322c.1143.0572.2413.0843.369.0786s.2519-.044.3606-.1111c.1088-.0672.1986-.161.2609-.2727.0623-.1116.095-.2373.0951-.3651v-14.24999c0-.39782-.158-.77936-.4393-1.06066-.2813-.281305-.6629-.43934-1.0607-.43934zm-3.75 9.74999h-9c-.19891 0-.38968-.079-.53033-.2197-.14065-.14061-.21967-.33138-.21967-.53029s.07902-.38968.21967-.53033.33142-.21967.53033-.21967h9c.1989 0 .3897.07902.5303.21967.1407.14065.2197.33142.2197.53033s-.079.38968-.2197.53029c-.1406.1407-.3314.2197-.5303.2197zm0-2.99999h-9c-.19891 0-.38968-.07902-.53033-.21967s-.21967-.33142-.21967-.53033.07902-.38968.21967-.53033.33142-.21967.53033-.21967h9c.1989 0 .3897.07902.5303.21967.1407.14065.2197.33142.2197.53033s-.079.38968-.2197.53033c-.1406.14065-.3314.21967-.5303.21967z"
				fill="currentColor"
			></path>
		</symbol>
		<symbol fill="none" viewBox="0 0 32 28" id="RecurringBillsOutline">
			<path
				d="m24.4375 10.25c0 .2486-.0988.4871-.2746.6629s-.4143.2746-.6629.2746h-15c-.24864 0-.4871-.0988-.66291-.2746-.17582-.1758-.27459-.4143-.27459-.6629s.09877-.4871.27459-.66291c.17581-.17582.41427-.27459.66291-.27459h15c.2486 0 .4871.09877.6629.27459.1758.17581.2746.41431.2746.66291zm-.9375 4.0625h-15c-.24864 0-.4871.0988-.66291.2746-.17582.1758-.27459.4143-.27459.6629s.09877.4871.27459.6629c.17581.1758.41427.2746.66291.2746h15c.2486 0 .4871-.0988.6629-.2746s.2746-.4143.2746-.6629-.0988-.4871-.2746-.6629-.4143-.2746-.6629-.2746zm8.4375-11.5625v23.75c-.0002.1598-.0412.3168-.1191.4563-.078.1395-.1902.2567-.3262.3406-.1476.0921-.3182.1409-.4922.1406-.1453.0001-.2887-.0336-.4187-.0984l-4.5813-2.2907-4.5813 2.2907c-.13.0649-.2734.0987-.4187.0987s-.2887-.0338-.4187-.0987l-4.5813-2.2907-4.5813 2.2907c-.13.0649-.2734.0987-.4187.0987s-.2887-.0338-.4187-.0987l-4.5813-2.2907-4.58125 2.2907c-.14295.0713-.30178.105-.461388.0977-.159613-.0073-.314721-.0552-.450598-.1393-.135877-.084-.248016-.2014-.325769-.341-.077754-.1396-.1185428-.2967-.118495-.4565v-23.75c0-.58016.230468-1.13656.640704-1.5468.410236-.410232.966636-.6407 1.546796-.6407h27.5c.5802 0 1.1366.230468 1.5468.6407.4102.41024.6407.96664.6407 1.5468zm-1.875 0c0-.08288-.0329-.16237-.0915-.22097-.0586-.05861-.1381-.09153-.221-.09153h-27.5c-.08288 0-.16237.03292-.22097.09153-.05861.0586-.09153.13809-.09153.22097v22.2328l3.64375-1.8219c.13004-.0649.2734-.0987.41875-.0987s.28871.0338.41875.0987l4.58125 2.2907 4.5813-2.2907c.13-.0649.2734-.0987.4187-.0987s.2887.0338.4187.0987l4.5813 2.2907 4.5813-2.2907c.13-.0649.2734-.0987.4187-.0987s.2887.0338.4187.0987l3.6438 1.8219z"
				fill="currentColor"
			></path>
		</symbol>
		<symbol fill="none" viewBox="0 0 18 22" id="Pots">
			<path
				d="m14.25 3.33595v-1.57594c0-.39782-.158-.779356-.4393-1.06066-.2813-.281305-.6629-.43934-1.0607-.43934h-7.5c-.39782 0-.77936.158035-1.06066.43934-.2813.281304-.43934.66284-.43934 1.06066v1.57594c-.84646.17368-1.60711.634-2.15363 1.30332-.54652.66931-.84545 1.50664-.84637 2.37074v10.49999c0 .9946.39509 1.9484 1.09835 2.6517.70326.7032 1.65709 1.0983 2.65165 1.0983h9c.9946 0 1.9484-.3951 2.6517-1.0983.7032-.7033 1.0983-1.6571 1.0983-2.6517v-10.49999c-.0009-.8641-.2999-1.70143-.8464-2.37074-.5465-.66932-1.3071-1.12964-2.1536-1.30332zm-6-1.57594h1.5v1.5h-1.5zm-3 0h1.5v1.5h-1.5zm4.5 14.24999v.75c0 .1989-.07902.3897-.21967.5303-.14065.1407-.33142.2197-.53033.2197s-.38968-.079-.53033-.2197c-.14065-.1406-.21967-.3314-.21967-.5303v-.75h-.75c-.19891 0-.38968-.079-.53033-.2197-.14065-.1406-.21967-.3314-.21967-.5303s.07902-.3897.21967-.5303c.14065-.1407.33142-.2197.53033-.2197h2.25c.19891 0 .3897-.079.5303-.2197.1407-.1406.2197-.3314.2197-.5303s-.079-.3897-.2197-.5303c-.1406-.1407-.33139-.2197-.5303-.2197h-1.5c-.59674 0-1.16903-.237-1.59099-.659s-.65901-.9943-.65901-1.591.23705-1.16902.65901-1.59098.99425-.65901 1.59099-.65901v-.75c0-.19891.07902-.38968.21967-.53033s.33142-.21967.53033-.21967.38968.07902.53033.21967.21967.33142.21967.53033v.75h.75c.1989 0 .3897.07902.5303.21967.1407.14065.2197.33142.2197.53033s-.079.38968-.2197.53033c-.1406.14065-.3314.21966-.5303.21966h-2.25c-.19891 0-.38968.079-.53033.2197-.14065.1406-.21967.3314-.21967.5303s.07902.3897.21967.5303c.14065.1407.33142.2197.53033.2197h1.5c.5967 0 1.169.2371 1.591.659.4219.422.659.9943.659 1.591s-.2371 1.169-.659 1.591c-.422.422-.9943.659-1.591.659zm3-12.74999h-1.5v-1.5h1.5z"
				fill="currentColor"
			></path>
		</symbol>
		<symbol fill="none" viewBox="0 0 18 19" id="Overview">
			<path
				d="m18 8.59282v8.66718c0 .3978-.158.7794-.4393 1.0607s-.6629.4393-1.0607.4393h-3.75c-.3978 0-.7794-.158-1.0607-.4393s-.4393-.6629-.4393-1.0607v-3.75c0-.1989-.079-.3897-.2197-.5303-.1406-.1407-.3314-.2197-.5303-.2197h-3c-.19891 0-.38968.079-.53033.2197-.14065.1406-.21967.3314-.21967.5303v3.75c0 .3978-.15804.7794-.43934 1.0607s-.66284.4393-1.06066.4393h-3.75c-.39782 0-.779356-.158-1.06066-.4393-.281305-.2813-.43933998-.6629-.43933998-1.0607v-8.66718c-.00003156-.20761.04303048-.41295.12646098-.60305.08343-.1901.205412-.36081.358226-.50133l7.500003-7.07625.01031-.010313c.27613-.251125.63597-.3902803 1.00922-.3902803s.73308.1391553 1.00918.3902803c.0032.003669.0067.007114.0103.010313l7.5 7.07625c.1513.14126.2717.3123.3537.50237.082.19006.1237.39503.1226.60201z"
				fill="currentColor"
			></path>
		</symbol>
		<symbol fill="none" viewBox="0 0 18 16" id="Filter">
			<path
				d="m16.7976 2.71562-.0062.00704-5.2914 5.65v4.33514c.0003.2062-.0504.4092-.1476.5911-.0972.1818-.2379.3368-.4095.4511l-2.49995 1.6672c-.1884.1255-.40734.1975-.63344.2082-.22611.0108-.45091-.04-.65039-.147s-.36616-.2662-.48225-.4605-.17723-.4165-.17689-.6429v-6.00234l-5.29141-5.65-.00625-.00704c-.16269-.17905-.269938-.40146-.308716-.64026s-.007425-.48373.090256-.70506c.09768-.22133.25749-.409563.46005-.541857.20255-.132294.43914-.202966.68107-.203443h13.75002c.2421.000024.479.070368.6819.202485.2029.132118.3631.320325.4611.541745.0979.22142.1295.46653.0908.70555-.0387.23901-.146.46165-.3088.64084z"
				fill="currentColor"
			></path>
		</symbol>
		<symbol fill="none" viewBox="0 0 14 14" id="Exclamation">
			<path
				d="m7 .5c-1.28558 0-2.54228.381218-3.6112 1.09545-1.06892.71423-1.90204 1.72939-2.394014 2.91711-.49197 1.18772-.620691 2.49465-.369887 3.75553.250804 1.26087.869871 2.41911 1.778911 3.32811s2.06723 1.5281 3.32811 1.7789c1.26087.2508 2.56781.1221 3.75552-.3699 1.18776-.492 2.20286-1.3251 2.91716-2.394.7142-1.06891 1.0954-2.32562 1.0954-3.6112-.0018-1.72335-.6872-3.37559-1.9058-4.59418-1.2186-1.2186-2.87085-1.904-4.5942-1.90582zm-.5 3.5c0-.13261.05268-.25979.14645-.35355.09377-.09377.22094-.14645.35355-.14645s.25979.05268.35356.14645c.09376.09376.14644.22094.14644.35355v3.5c0 .13261-.05268.25979-.14644.35355-.09377.09377-.22095.14645-.35356.14645s-.25978-.05268-.35355-.14645c-.09377-.09376-.14645-.22094-.14645-.35355zm.5 6.5c-.14833 0-.29334-.044-.41667-.1264-.12334-.0824-.21947-.1995-.27624-.3366-.05676-.13703-.07162-.28783-.04268-.43332.02894-.14548.10037-.27912.20526-.38401s.23853-.17632.38401-.20526c.14549-.02894.29629-.01408.43333.04268.13705.05677.25418.1529.33659.27623.08242.12334.1264.26834.1264.41668 0 .19891-.07902.3897-.21967.5303-.14065.1407-.33141.2197-.53033.2197z"
				fill="currentColor"
			></path>
		</symbol>
		<symbol fill="none" viewBox="0 0 14 14" id="Check">
			<path
				d="m7 .5c-1.28558 0-2.54228.381218-3.6112 1.09545-1.06892.71423-1.90204 1.72939-2.394014 2.91711-.49197 1.18772-.620691 2.49465-.369887 3.75553.250804 1.26087.869871 2.41911 1.778911 3.32811s2.06723 1.5281 3.32811 1.7789c1.26087.2508 2.56781.1221 3.75552-.3699 1.18776-.492 2.20286-1.3251 2.91716-2.394.7142-1.06891 1.0954-2.32562 1.0954-3.6112-.0018-1.72335-.6872-3.37559-1.9058-4.59418-1.2186-1.2186-2.87085-1.904-4.5942-1.90582zm2.85375 5.35375-3.5 3.5c-.04643.04649-.10158.08337-.16228.10853s-.12576.03811-.19147.03811c-.0657 0-.13077-.01295-.19147-.03811s-.11584-.06204-.16228-.10853l-1.5-1.5c-.09382-.09382-.14653-.22107-.14653-.35375s.05271-.25993.14653-.35375.22107-.14653.35375-.14653.25993.05271.35375.14653l1.14625 1.14688 3.14625-3.14688c.04646-.04646.10161-.08331.1623-.10845.0607-.02514.12576-.03808.19145-.03808.0657 0 .13075.01294.19145.03808s.11585.06199.1623.10845c.04646.04645.08331.10161.10845.1623.02514.0607.0381.12575.0381.19145s-.01296.13075-.0381.19145c-.02514.06069-.06199.11585-.10845.1623z"
				fill="currentColor"
			></path>
		</symbol>
		<symbol fill="none" viewBox="0 0 6 11" id="CaretRight">
			<path
				d="m.853506.146465 5.000004 5.000005c.04648.04643.08336.10158.10853.16228.02516.06069.03811.12576.03811.19147 0 .0657-.01295.13077-.03811.19147-.02517.06069-.06205.11584-.10853.16228l-5.000004 5.00003c-.069927.07-.159054.1177-.256097.137-.097042.0193-.197637.0094-.289048-.0285-.091412-.0378-.16953-.102-.2244652-.1843-.0549354-.0823-.08421767-.179-.08413981-.278l-.00000043-9.999984c-.00007788-.098949.02920444-.195695.08413984-.277992.0549356-.082297.1330536-.1464431.2244646-.1843193.091412-.03787611.192007-.04777907.289049-.02845381.097042.01932521.186169.06700801.256097.13701411z"
				fill="currentColor"
			></path>
		</symbol>
		<symbol fill="none" viewBox="0 0 6 11" id="CaretLeft">
			<path
				d="m5.14656 10.8535-5.000005-4.99997c-.046488-.04643-.0833676-.10158-.1085298-.16228-.0251623-.06069-.03811269-.12576-.0381127-.19147 0-.0657.0129504-.13077.0381126-.19147.0251623-.06069.0620419-.11584.1085299-.16228l4.999995-4.999997c.06993-.0700052.15906-.117689.2561-.13701419.09704-.01932521.19764-.0094229.28905.02845329.09141.0378763.16953.1020229.22447.1843199.05493.082297.08421.179044.08414.277991v10.000017c.00007.0989-.02921.1957-.08414.278-.05494.0823-.13306.1464-.22447.1843s-.19201.0478-.28905.0284c-.09704-.0193-.18617-.067-.25609-.137z"
				fill="currentColor"
			></path>
		</symbol>
		<symbol fill="none" viewBox="0 0 12 6" id="CaretDown">
			<path
				d="m11.3538.85375-5.00002 5c-.04644.04649-.10158.08337-.16228.10853s-.12576.03811-.19147.03811-.13077-.01295-.19147-.03811-.11585-.06204-.16228-.10853l-5.000002-5c-.070006-.069927-.11769-.159054-.137015-.256096-.019325-.097043-.009423-.197638.028453-.289049.037877-.091412.102024-.16953.18432-.224465.082297-.0549354.179044-.08421771.277994-.08413985h9.99997c.099-.00007786.1957.02920445.278.08413985.0823.054935.1465.133053.1843.224465.0379.091411.0478.192006.0285.289049-.0193.097042-.067.186169-.137.256096z"
				fill="currentColor"
			></path>
		</symbol>
		<symbol fill="none" viewBox="0 0 20 20" id="Budgets">
			<path
				d="m.32038 8.59187c.221475-1.85713.98107-3.60899 2.18531-5.04.13325-.16068.29856-.29177.48537-.38491.18681-.09313.391-.14625.59951-.15595.20851-.00971.41675.02421.61141.09958.19465.07538.37143.19055.51902.33816l2.59407 2.64937c.24982.24925.40292.57919.43194.93089.02902.35171-.06792.70228-.27351.98911-.15572.22092-.273.46656-.34687.72656-.02347.07671-.07091.14388-.13537.19164-.06446.04775-.14253.07357-.22276.07368h-6.074995c-.052937.00008-.105292-.01104-.153622-.03264s-.091539-.05319-.126785-.09268c-.035246-.0395-.06173-.08601-.077711-.13648s-.021095-.10374-.015007-.15633zm10.56002-8.57625c-.2072-.01806747-.4159.0071461-.6128.0740394-.1969.0668936-.37778.1740046-.53109.3145316-.15331.140528-.27573.3114-.35947.501766-.08374.190363-.12698.396063-.12697.604033v3.81282c-.00259.35379.12106.69691.34874.96772.22768.27082.54449.45156.89349.50978.6571.10841 1.2595.43241 1.7121.92093.4527.48852.73 1.11379.7881 1.77727.0581.66349-.1062 1.32739-.4671 1.88719-.3608.5598-.8977.9836-1.526 1.2046-.0731.0269-.1362.0755-.1808.1394s-.0685.1399-.0685.2178v6.1153c-.0004.0531.0105.1057.032.1542.0215.0486.0531.092.0926.1275.0395.0354.0861.0621.1367.0782s.104.0212.1568.0151c2.3399-.2889 4.4967-1.4131 6.0735-3.1658s2.4676-4.016 2.5084-6.37326c.0703-5.08968-3.826-9.431245-8.8697-9.88312zm-1.88815 12.57188c-.41923-.1495-.79993-.3905-1.1145-.7054-.31458-.3149-.55514-.6958-.70425-1.1152-.02556-.0744-.07354-.139-.13733-.185-.0638-.046-.14027-.0711-.21892-.0719h-6.124683c-.053006-.0003-.105481.0106-.153964.032s-.091873.0529-.127308.0923c-.035436.0394-.062111.0859-.078267.1364s-.021425.1038-.015461.1565c.262606 2.1669 1.244093 4.1833 2.787573 5.7268s3.55984 2.525 5.7268 2.7876c.05267.0059.10601.0007.15649-.0155.05049-.0162.09697-.0428.1364-.0783.03942-.0354.07088-.0788.0923-.1273.02143-.0485.03233-.1009.032-.1539v-6.1191c.00015-.0793-.02454-.1567-.07061-.2213-.04608-.0645-.11121-.113-.18627-.1387z"
				fill="currentColor"
			></path>
		</symbol>
	</defs>
</svg>
